<mxfile host="app.diagrams.net" modified="2021-01-02T15:13:18.987Z" agent="5.0 (Windows NT 10.0; Win64; x64) AppleWebKit/537.36 (KHTML, like Gecko) Chrome/89.0.4356.6 Safari/537.36" etag="oxyK5ixH26u9Yj5mko4O" version="14.1.4" type="github">
  <diagram name="Page-1" id="d9b1e647-80fa-b4a2-5024-87a742678bcc">
    <mxGraphModel dx="1757" dy="1194" grid="1" gridSize="10" guides="1" tooltips="1" connect="1" arrows="1" fold="1" page="1" pageScale="1" pageWidth="1100" pageHeight="850" background="#ffffff" math="0" shadow="0">
      <root>
        <mxCell id="0" />
        <mxCell id="1" parent="0" />
        <mxCell id="57fe6abec08f04cb-1" value="采集" style="shape=step;whiteSpace=wrap;html=1;fontSize=28;fillColor=#0080FF;fontColor=#FFFFFF;strokeColor=none;" parent="1" vertex="1">
          <mxGeometry x="45" y="180" width="240" height="80" as="geometry" />
        </mxCell>
        <mxCell id="57fe6abec08f04cb-2" value="预处理" style="shape=step;whiteSpace=wrap;html=1;fontSize=28;fillColor=#0075E8;fontColor=#FFFFFF;strokeColor=none;" parent="1" vertex="1">
          <mxGeometry x="285" y="180" width="220" height="80" as="geometry" />
        </mxCell>
        <mxCell id="57fe6abec08f04cb-3" value="编码" style="shape=step;whiteSpace=wrap;html=1;fontSize=28;fillColor=#0067CC;fontColor=#FFFFFF;strokeColor=none;" parent="1" vertex="1">
          <mxGeometry x="500" y="180" width="220" height="80" as="geometry" />
        </mxCell>
        <mxCell id="57fe6abec08f04cb-5" value="推流" style="shape=step;whiteSpace=wrap;html=1;fontSize=28;fillColor=#0059B0;fontColor=#FFFFFF;strokeColor=none;" parent="1" vertex="1">
          <mxGeometry x="920" y="180" width="220" height="80" as="geometry" />
        </mxCell>
        <mxCell id="57fe6abec08f04cb-6" value="解码播放" style="shape=step;whiteSpace=wrap;html=1;fontSize=28;fillColor=#004D99;fontColor=#FFFFFF;strokeColor=none;" parent="1" vertex="1">
          <mxGeometry x="1370" y="180" width="200" height="80" as="geometry" />
        </mxCell>
        <mxCell id="2hSDwxN0aHRVcDErsbqg-3" value="摄&lt;br&gt;像&lt;br&gt;头" style="rounded=0;whiteSpace=wrap;html=1;horizontal=1;" vertex="1" parent="1">
          <mxGeometry x="65" y="475" width="40" height="125" as="geometry" />
        </mxCell>
        <mxCell id="2hSDwxN0aHRVcDErsbqg-4" value="屏&lt;br&gt;幕&lt;br&gt;录&lt;br&gt;制" style="rounded=0;whiteSpace=wrap;html=1;horizontal=1;" vertex="1" parent="1">
          <mxGeometry x="115" y="475" width="40" height="125" as="geometry" />
        </mxCell>
        <mxCell id="2hSDwxN0aHRVcDErsbqg-5" value="视&lt;br&gt;频&lt;br&gt;文&lt;br&gt;件&lt;br&gt;推&lt;br&gt;流" style="rounded=0;whiteSpace=wrap;html=1;horizontal=1;" vertex="1" parent="1">
          <mxGeometry x="165" y="475" width="40" height="125" as="geometry" />
        </mxCell>
        <mxCell id="2hSDwxN0aHRVcDErsbqg-30" style="edgeStyle=orthogonalEdgeStyle;rounded=0;orthogonalLoop=1;jettySize=auto;html=1;entryX=0;entryY=0.5;entryDx=0;entryDy=0;" edge="1" parent="1" source="2hSDwxN0aHRVcDErsbqg-6" target="2hSDwxN0aHRVcDErsbqg-23">
          <mxGeometry relative="1" as="geometry" />
        </mxCell>
        <mxCell id="2hSDwxN0aHRVcDErsbqg-6" value="其&lt;br&gt;他" style="rounded=0;whiteSpace=wrap;html=1;horizontal=1;" vertex="1" parent="1">
          <mxGeometry x="215" y="475" width="40" height="125" as="geometry" />
        </mxCell>
        <mxCell id="2hSDwxN0aHRVcDErsbqg-9" value="麦&lt;br&gt;克&lt;br&gt;风" style="rounded=0;whiteSpace=wrap;html=1;horizontal=1;" vertex="1" parent="1">
          <mxGeometry x="65" y="290" width="40" height="125" as="geometry" />
        </mxCell>
        <mxCell id="2hSDwxN0aHRVcDErsbqg-10" value="系&lt;br&gt;统&lt;br&gt;声&lt;br&gt;音" style="rounded=0;whiteSpace=wrap;html=1;horizontal=1;" vertex="1" parent="1">
          <mxGeometry x="115" y="290" width="40" height="125" as="geometry" />
        </mxCell>
        <mxCell id="2hSDwxN0aHRVcDErsbqg-11" value="音&lt;br&gt;频&lt;br&gt;文&lt;br&gt;件&lt;br&gt;推&lt;br&gt;流" style="rounded=0;whiteSpace=wrap;html=1;horizontal=1;" vertex="1" parent="1">
          <mxGeometry x="165" y="290" width="40" height="125" as="geometry" />
        </mxCell>
        <mxCell id="2hSDwxN0aHRVcDErsbqg-28" style="edgeStyle=orthogonalEdgeStyle;rounded=0;orthogonalLoop=1;jettySize=auto;html=1;exitX=1;exitY=0.5;exitDx=0;exitDy=0;entryX=0;entryY=0.5;entryDx=0;entryDy=0;" edge="1" parent="1" source="2hSDwxN0aHRVcDErsbqg-12" target="2hSDwxN0aHRVcDErsbqg-14">
          <mxGeometry relative="1" as="geometry" />
        </mxCell>
        <mxCell id="2hSDwxN0aHRVcDErsbqg-12" value="其&lt;br&gt;他" style="rounded=0;whiteSpace=wrap;html=1;horizontal=1;" vertex="1" parent="1">
          <mxGeometry x="215" y="290" width="40" height="125" as="geometry" />
        </mxCell>
        <mxCell id="2hSDwxN0aHRVcDErsbqg-14" value="降&lt;br&gt;噪" style="rounded=0;whiteSpace=wrap;html=1;horizontal=1;" vertex="1" parent="1">
          <mxGeometry x="325" y="290" width="40" height="125" as="geometry" />
        </mxCell>
        <mxCell id="2hSDwxN0aHRVcDErsbqg-15" value="混&lt;br&gt;音&lt;br&gt;、&lt;br&gt;特&lt;br&gt;效&lt;br&gt;" style="rounded=0;whiteSpace=wrap;html=1;horizontal=1;" vertex="1" parent="1">
          <mxGeometry x="375" y="290" width="40" height="125" as="geometry" />
        </mxCell>
        <mxCell id="2hSDwxN0aHRVcDErsbqg-48" style="edgeStyle=orthogonalEdgeStyle;rounded=0;orthogonalLoop=1;jettySize=auto;html=1;exitX=1;exitY=0.5;exitDx=0;exitDy=0;fontColor=#000000;" edge="1" parent="1" source="2hSDwxN0aHRVcDErsbqg-16">
          <mxGeometry relative="1" as="geometry">
            <mxPoint x="530" y="353" as="targetPoint" />
          </mxGeometry>
        </mxCell>
        <mxCell id="2hSDwxN0aHRVcDErsbqg-16" value="自&lt;br&gt;定&lt;br&gt;义&lt;br&gt;处&lt;br&gt;理" style="rounded=0;whiteSpace=wrap;html=1;horizontal=1;" vertex="1" parent="1">
          <mxGeometry x="425" y="290" width="40" height="125" as="geometry" />
        </mxCell>
        <mxCell id="2hSDwxN0aHRVcDErsbqg-23" value="美&lt;br&gt;颜&lt;br&gt;、&lt;br&gt;滤&lt;br&gt;镜" style="rounded=0;whiteSpace=wrap;html=1;horizontal=1;" vertex="1" parent="1">
          <mxGeometry x="330" y="475" width="40" height="125" as="geometry" />
        </mxCell>
        <mxCell id="2hSDwxN0aHRVcDErsbqg-24" value="水&lt;br&gt;印&lt;br&gt;、&lt;br&gt;内&lt;br&gt;容&lt;br&gt;过&lt;br&gt;滤" style="rounded=0;whiteSpace=wrap;html=1;horizontal=1;" vertex="1" parent="1">
          <mxGeometry x="380" y="475" width="40" height="125" as="geometry" />
        </mxCell>
        <mxCell id="2hSDwxN0aHRVcDErsbqg-49" style="edgeStyle=orthogonalEdgeStyle;rounded=0;orthogonalLoop=1;jettySize=auto;html=1;exitX=1;exitY=0.5;exitDx=0;exitDy=0;fontColor=#000000;" edge="1" parent="1" source="2hSDwxN0aHRVcDErsbqg-25">
          <mxGeometry relative="1" as="geometry">
            <mxPoint x="530" y="538" as="targetPoint" />
          </mxGeometry>
        </mxCell>
        <mxCell id="2hSDwxN0aHRVcDErsbqg-25" value="自&lt;br&gt;定&lt;br&gt;义&lt;br&gt;处&lt;br&gt;理" style="rounded=0;whiteSpace=wrap;html=1;horizontal=1;" vertex="1" parent="1">
          <mxGeometry x="430" y="475" width="40" height="125" as="geometry" />
        </mxCell>
        <mxCell id="2hSDwxN0aHRVcDErsbqg-29" value="PCM" style="text;html=1;align=center;verticalAlign=middle;resizable=0;points=[];autosize=1;" vertex="1" parent="1">
          <mxGeometry x="265" y="320" width="40" height="20" as="geometry" />
        </mxCell>
        <mxCell id="2hSDwxN0aHRVcDErsbqg-31" value="YUV/RGB" style="text;html=1;align=center;verticalAlign=middle;resizable=0;points=[];autosize=1;" vertex="1" parent="1">
          <mxGeometry x="255" y="510" width="70" height="20" as="geometry" />
        </mxCell>
        <mxCell id="2hSDwxN0aHRVcDErsbqg-32" value="封装" style="shape=step;whiteSpace=wrap;html=1;fontSize=28;fillColor=#0067CC;fontColor=#FFFFFF;strokeColor=none;" vertex="1" parent="1">
          <mxGeometry x="710" y="180" width="220" height="80" as="geometry" />
        </mxCell>
        <mxCell id="2hSDwxN0aHRVcDErsbqg-34" value="音&lt;br&gt;频&lt;br&gt;源" style="rounded=0;whiteSpace=wrap;html=1;horizontal=1;strokeColor=none;fillColor=#0080FF;" vertex="1" parent="1">
          <mxGeometry x="10" y="290" width="40" height="125" as="geometry" />
        </mxCell>
        <mxCell id="2hSDwxN0aHRVcDErsbqg-35" value="视&lt;br&gt;频&lt;br&gt;源" style="rounded=0;whiteSpace=wrap;html=1;horizontal=1;fillColor=#99FFCC;strokeColor=none;" vertex="1" parent="1">
          <mxGeometry x="10" y="475" width="40" height="125" as="geometry" />
        </mxCell>
        <mxCell id="2hSDwxN0aHRVcDErsbqg-52" style="edgeStyle=orthogonalEdgeStyle;rounded=0;orthogonalLoop=1;jettySize=auto;html=1;exitX=1;exitY=0.5;exitDx=0;exitDy=0;entryX=1;entryY=0.5;entryDx=0;entryDy=0;endArrow=oval;endFill=1;fontColor=#000000;" edge="1" parent="1" source="2hSDwxN0aHRVcDErsbqg-36" target="2hSDwxN0aHRVcDErsbqg-47">
          <mxGeometry relative="1" as="geometry">
            <Array as="points">
              <mxPoint x="700" y="300" />
              <mxPoint x="700" y="590" />
            </Array>
          </mxGeometry>
        </mxCell>
        <mxCell id="2hSDwxN0aHRVcDErsbqg-36" value="ACC" style="rounded=0;whiteSpace=wrap;html=1;strokeColor=#000000;fontColor=#000000;" vertex="1" parent="1">
          <mxGeometry x="530" y="290" width="150" height="20" as="geometry" />
        </mxCell>
        <mxCell id="2hSDwxN0aHRVcDErsbqg-37" value="MP3" style="rounded=0;whiteSpace=wrap;html=1;strokeColor=#000000;fontColor=#000000;" vertex="1" parent="1">
          <mxGeometry x="530" y="325" width="150" height="20" as="geometry" />
        </mxCell>
        <mxCell id="2hSDwxN0aHRVcDErsbqg-38" value="WMA" style="rounded=0;whiteSpace=wrap;html=1;strokeColor=#000000;fontColor=#000000;" vertex="1" parent="1">
          <mxGeometry x="530" y="360" width="150" height="20" as="geometry" />
        </mxCell>
        <mxCell id="2hSDwxN0aHRVcDErsbqg-43" value="其他" style="rounded=0;whiteSpace=wrap;html=1;strokeColor=#000000;fontColor=#000000;" vertex="1" parent="1">
          <mxGeometry x="530" y="395" width="150" height="20" as="geometry" />
        </mxCell>
        <mxCell id="2hSDwxN0aHRVcDErsbqg-44" value="H.264" style="rounded=0;whiteSpace=wrap;html=1;strokeColor=#000000;fontColor=#000000;" vertex="1" parent="1">
          <mxGeometry x="535" y="475" width="150" height="20" as="geometry" />
        </mxCell>
        <mxCell id="2hSDwxN0aHRVcDErsbqg-45" value="H.265" style="rounded=0;whiteSpace=wrap;html=1;strokeColor=#000000;fontColor=#000000;" vertex="1" parent="1">
          <mxGeometry x="535" y="510" width="150" height="20" as="geometry" />
        </mxCell>
        <mxCell id="2hSDwxN0aHRVcDErsbqg-46" value="VP8" style="rounded=0;whiteSpace=wrap;html=1;strokeColor=#000000;fontColor=#000000;" vertex="1" parent="1">
          <mxGeometry x="535" y="545" width="150" height="20" as="geometry" />
        </mxCell>
        <mxCell id="2hSDwxN0aHRVcDErsbqg-47" value="VP9" style="rounded=0;whiteSpace=wrap;html=1;strokeColor=#000000;fontColor=#000000;" vertex="1" parent="1">
          <mxGeometry x="535" y="580" width="150" height="20" as="geometry" />
        </mxCell>
        <mxCell id="2hSDwxN0aHRVcDErsbqg-60" style="edgeStyle=orthogonalEdgeStyle;rounded=0;orthogonalLoop=1;jettySize=auto;html=1;exitX=1;exitY=0.5;exitDx=0;exitDy=0;entryX=1;entryY=0.5;entryDx=0;entryDy=0;endArrow=oval;endFill=1;fontColor=#000000;" edge="1" parent="1" source="2hSDwxN0aHRVcDErsbqg-53" target="2hSDwxN0aHRVcDErsbqg-58">
          <mxGeometry relative="1" as="geometry" />
        </mxCell>
        <mxCell id="2hSDwxN0aHRVcDErsbqg-53" value=".TS" style="rounded=0;whiteSpace=wrap;html=1;strokeColor=#000000;fillColor=#ffffff;fontColor=#000000;" vertex="1" parent="1">
          <mxGeometry x="750" y="290" width="130" height="30" as="geometry" />
        </mxCell>
        <mxCell id="2hSDwxN0aHRVcDErsbqg-54" value=".FLV" style="rounded=0;whiteSpace=wrap;html=1;strokeColor=#000000;fillColor=#ffffff;fontColor=#000000;" vertex="1" parent="1">
          <mxGeometry x="750" y="345" width="130" height="30" as="geometry" />
        </mxCell>
        <mxCell id="2hSDwxN0aHRVcDErsbqg-55" value=".MP4" style="rounded=0;whiteSpace=wrap;html=1;strokeColor=#000000;fillColor=#ffffff;fontColor=#000000;" vertex="1" parent="1">
          <mxGeometry x="750" y="400" width="130" height="30" as="geometry" />
        </mxCell>
        <mxCell id="2hSDwxN0aHRVcDErsbqg-56" value=".RMVB" style="rounded=0;whiteSpace=wrap;html=1;strokeColor=#000000;fillColor=#ffffff;fontColor=#000000;" vertex="1" parent="1">
          <mxGeometry x="750" y="450" width="130" height="30" as="geometry" />
        </mxCell>
        <mxCell id="2hSDwxN0aHRVcDErsbqg-57" value=".AVI" style="rounded=0;whiteSpace=wrap;html=1;strokeColor=#000000;fillColor=#ffffff;fontColor=#000000;" vertex="1" parent="1">
          <mxGeometry x="750" y="505" width="130" height="30" as="geometry" />
        </mxCell>
        <mxCell id="2hSDwxN0aHRVcDErsbqg-58" value=".MKV" style="rounded=0;whiteSpace=wrap;html=1;strokeColor=#000000;fillColor=#ffffff;fontColor=#000000;" vertex="1" parent="1">
          <mxGeometry x="750" y="565" width="130" height="30" as="geometry" />
        </mxCell>
        <mxCell id="2hSDwxN0aHRVcDErsbqg-59" value="" style="shape=flexArrow;endArrow=classic;html=1;fontColor=#000000;" edge="1" parent="1">
          <mxGeometry width="50" height="50" relative="1" as="geometry">
            <mxPoint x="700" y="415" as="sourcePoint" />
            <mxPoint x="740" y="415" as="targetPoint" />
          </mxGeometry>
        </mxCell>
        <mxCell id="2hSDwxN0aHRVcDErsbqg-61" value="" style="shape=flexArrow;endArrow=classic;html=1;fontColor=#000000;" edge="1" parent="1">
          <mxGeometry width="50" height="50" relative="1" as="geometry">
            <mxPoint x="900" y="415" as="sourcePoint" />
            <mxPoint x="940" y="415" as="targetPoint" />
          </mxGeometry>
        </mxCell>
        <mxCell id="2hSDwxN0aHRVcDErsbqg-66" style="edgeStyle=orthogonalEdgeStyle;rounded=0;orthogonalLoop=1;jettySize=auto;html=1;exitX=1;exitY=0.5;exitDx=0;exitDy=0;entryX=1;entryY=0.5;entryDx=0;entryDy=0;endArrow=oval;endFill=1;fontColor=#000000;" edge="1" parent="1" source="2hSDwxN0aHRVcDErsbqg-62" target="2hSDwxN0aHRVcDErsbqg-64">
          <mxGeometry relative="1" as="geometry" />
        </mxCell>
        <mxCell id="2hSDwxN0aHRVcDErsbqg-62" value="RTMP" style="rounded=0;whiteSpace=wrap;html=1;strokeColor=#000000;fillColor=#ffffff;fontColor=#000000;" vertex="1" parent="1">
          <mxGeometry x="955" y="335" width="130" height="30" as="geometry" />
        </mxCell>
        <mxCell id="2hSDwxN0aHRVcDErsbqg-63" value="WRTC" style="rounded=0;whiteSpace=wrap;html=1;strokeColor=#000000;fillColor=#ffffff;fontColor=#000000;" vertex="1" parent="1">
          <mxGeometry x="955" y="400" width="130" height="30" as="geometry" />
        </mxCell>
        <mxCell id="2hSDwxN0aHRVcDErsbqg-64" value="私有协议" style="rounded=0;whiteSpace=wrap;html=1;strokeColor=#000000;fillColor=#ffffff;fontColor=#000000;" vertex="1" parent="1">
          <mxGeometry x="955" y="475" width="130" height="30" as="geometry" />
        </mxCell>
        <mxCell id="2hSDwxN0aHRVcDErsbqg-65" value="转码传输" style="shape=step;whiteSpace=wrap;html=1;fontSize=28;fillColor=#0059B0;fontColor=#FFFFFF;strokeColor=none;" vertex="1" parent="1">
          <mxGeometry x="1150" y="180" width="220" height="80" as="geometry" />
        </mxCell>
        <mxCell id="2hSDwxN0aHRVcDErsbqg-68" value="" style="shape=flexArrow;endArrow=classic;html=1;fontColor=#000000;" edge="1" parent="1">
          <mxGeometry width="50" height="50" relative="1" as="geometry">
            <mxPoint x="1110" y="415" as="sourcePoint" />
            <mxPoint x="1150" y="415" as="targetPoint" />
          </mxGeometry>
        </mxCell>
        <mxCell id="2hSDwxN0aHRVcDErsbqg-70" value="CDN" style="rounded=0;whiteSpace=wrap;html=1;horizontal=1;" vertex="1" parent="1">
          <mxGeometry x="1160" y="330" width="40" height="180" as="geometry" />
        </mxCell>
        <mxCell id="2hSDwxN0aHRVcDErsbqg-84" style="edgeStyle=orthogonalEdgeStyle;rounded=0;orthogonalLoop=1;jettySize=auto;html=1;exitX=1;exitY=0.5;exitDx=0;exitDy=0;entryX=1;entryY=0.5;entryDx=0;entryDy=0;endArrow=oval;endFill=1;fontColor=#000000;" edge="1" parent="1" source="2hSDwxN0aHRVcDErsbqg-71" target="2hSDwxN0aHRVcDErsbqg-74">
          <mxGeometry relative="1" as="geometry" />
        </mxCell>
        <mxCell id="2hSDwxN0aHRVcDErsbqg-71" value="HLS" style="rounded=0;whiteSpace=wrap;html=1;strokeColor=#000000;fillColor=#ffffff;fontColor=#000000;" vertex="1" parent="1">
          <mxGeometry x="1210" y="330" width="130" height="30" as="geometry" />
        </mxCell>
        <mxCell id="2hSDwxN0aHRVcDErsbqg-72" value="RTMP" style="rounded=0;whiteSpace=wrap;html=1;strokeColor=#000000;fillColor=#ffffff;fontColor=#000000;" vertex="1" parent="1">
          <mxGeometry x="1210" y="400" width="130" height="30" as="geometry" />
        </mxCell>
        <mxCell id="2hSDwxN0aHRVcDErsbqg-74" value="HTTP-FLV" style="rounded=0;whiteSpace=wrap;html=1;strokeColor=#000000;fillColor=#ffffff;fontColor=#000000;" vertex="1" parent="1">
          <mxGeometry x="1210" y="480" width="130" height="30" as="geometry" />
        </mxCell>
        <mxCell id="2hSDwxN0aHRVcDErsbqg-78" value="IOS" style="rounded=0;whiteSpace=wrap;html=1;strokeColor=#000000;fillColor=#ffffff;fontColor=#000000;" vertex="1" parent="1">
          <mxGeometry x="1410" y="480" width="130" height="30" as="geometry" />
        </mxCell>
        <mxCell id="2hSDwxN0aHRVcDErsbqg-80" value="Android" style="rounded=0;whiteSpace=wrap;html=1;strokeColor=#000000;fillColor=#ffffff;fontColor=#000000;" vertex="1" parent="1">
          <mxGeometry x="1410" y="430" width="130" height="30" as="geometry" />
        </mxCell>
        <mxCell id="2hSDwxN0aHRVcDErsbqg-81" value="Web" style="rounded=0;whiteSpace=wrap;html=1;strokeColor=#000000;fillColor=#ffffff;fontColor=#000000;" vertex="1" parent="1">
          <mxGeometry x="1410" y="330" width="130" height="30" as="geometry" />
        </mxCell>
        <mxCell id="2hSDwxN0aHRVcDErsbqg-82" value="PC" style="rounded=0;whiteSpace=wrap;html=1;strokeColor=#000000;fillColor=#ffffff;fontColor=#000000;" vertex="1" parent="1">
          <mxGeometry x="1410" y="380" width="130" height="30" as="geometry" />
        </mxCell>
        <mxCell id="2hSDwxN0aHRVcDErsbqg-83" value="" style="shape=flexArrow;endArrow=classic;html=1;fontColor=#000000;" edge="1" parent="1">
          <mxGeometry width="50" height="50" relative="1" as="geometry">
            <mxPoint x="1360" y="415" as="sourcePoint" />
            <mxPoint x="1400" y="415" as="targetPoint" />
          </mxGeometry>
        </mxCell>
      </root>
    </mxGraphModel>
  </diagram>
</mxfile>
